<?xml version="1.0" encoding="UTF-8" standalone="no"?>
<svg
   version="1.1"
   viewBox="0 0 800 600"
   style="visibility: visible;"
   id="svg44"
   sodipodi:docname="not-found.svg"
   inkscape:version="1.4 (e7c3feb1, 2024-10-09)"
   xmlns:inkscape="http://www.inkscape.org/namespaces/inkscape"
   xmlns:sodipodi="http://sodipodi.sourceforge.net/DTD/sodipodi-0.dtd"
   xmlns="http://www.w3.org/2000/svg"
   xmlns:svg="http://www.w3.org/2000/svg">
  <defs
     id="defs44" />
  <sodipodi:namedview
     id="namedview44"
     pagecolor="#ffffff"
     bordercolor="#000000"
     borderopacity="0.25"
     inkscape:showpageshadow="2"
     inkscape:pageopacity="0.0"
     inkscape:pagecheckerboard="0"
     inkscape:deskcolor="#d1d1d1"
     inkscape:zoom="0.57680575"
     inkscape:cx="627.5943"
     inkscape:cy="584.25215"
     inkscape:window-width="1472"
     inkscape:window-height="919"
     inkscape:window-x="0"
     inkscape:window-y="37"
     inkscape:window-maximized="0"
     inkscape:current-layer="svg44" />
  <g
     id="g44"
     transform="translate(69.347436)">
    <defs
       id="defs1">
      <clipPath
         id="GlassClip">
        <path
           d="m 380.857,346.164 c -1.247,4.651 -4.668,8.421 -9.196,10.06 -9.332,3.377 -26.2,7.817 -42.301,3.5 -16.101,-4.317 -28.485,-16.599 -34.877,-24.192 -3.101,-3.684 -4.177,-8.66 -2.93,-13.311 l 7.453,-27.798 c 0.756,-2.82 3.181,-4.868 6.088,-5.13 6.755,-0.61 20.546,-0.608 41.785,5.087 21.239,5.695 33.181,12.591 38.725,16.498 2.387,1.682 3.461,4.668 2.705,7.488 z"
           id="path1" />
      </clipPath>
      <clipPath
         id="cordClip">
        <rect
           width="800"
           height="600"
           id="rect1"
           x="0"
           y="0" />
      </clipPath>
    </defs>
    <g
       id="planet"
       transform="matrix(1,-0.0079,0.0079,1,-0.8595,4.4869)">
      <circle
         fill="none"
         stroke="#0e0620"
         stroke-width="3"
         stroke-miterlimit="10"
         cx="572.85901"
         cy="108.803"
         r="90.788002"
         id="circle1" />
      <circle
         id="craterBig"
         fill="none"
         stroke="#0e0620"
         stroke-width="3"
         stroke-miterlimit="10"
         cx="548.89099"
         cy="62.319"
         r="13.074"
         transform="translate(0.68)" />
      <circle
         id="craterSmall"
         fill="none"
         stroke="#0e0620"
         stroke-width="3"
         stroke-miterlimit="10"
         cx="591.74298"
         cy="158.918"
         r="7.9889998"
         transform="translate(-0.68)" />
      <path
         id="ring"
         fill="none"
         stroke="#0e0620"
         stroke-width="3"
         stroke-linecap="round"
         stroke-miterlimit="10"
         d="m 476.562,101.461 c -30.404,2.164 -49.691,4.221 -49.691,8.007 0,6.853 63.166,12.408 141.085,12.408 77.919,0 141.085,-5.555 141.085,-12.408 0,-3.378 -15.347,-4.988 -40.243,-7.225" />
      <path
         id="ringShadow"
         opacity="0.5"
         fill="none"
         stroke="#0e0620"
         stroke-width="3"
         stroke-linecap="round"
         stroke-miterlimit="10"
         d="m 483.985,127.43 c 23.462,1.531 52.515,2.436 83.972,2.436 36.069,0 68.978,-1.19 93.922,-3.149" />
    </g>
    <g
       id="stars">
      <g
         id="starsBig">
        <g
           transform="matrix(0.969,-0.2471,0.2471,0.969,-47.192,135.9503)"
           id="g2">
          <line
             fill="none"
             stroke="#0e0620"
             stroke-width="3"
             stroke-linecap="round"
             stroke-miterlimit="10"
             x1="518.07001"
             y1="245.375"
             x2="518.07001"
             y2="266.58099"
             id="line1" />
          <line
             fill="none"
             stroke="#0e0620"
             stroke-width="3"
             stroke-linecap="round"
             stroke-miterlimit="10"
             x1="508.129"
             y1="255.978"
             x2="528.01001"
             y2="255.978"
             id="line2" />
        </g>
        <g
           transform="matrix(0.9492,0.3148,-0.3148,0.9492,84.031,-36.3589)"
           id="g4">
          <line
             fill="none"
             stroke="#0e0620"
             stroke-width="3"
             stroke-linecap="round"
             stroke-miterlimit="10"
             x1="154.55"
             y1="231.39101"
             x2="154.55"
             y2="252.59801"
             id="line3" />
          <line
             fill="none"
             stroke="#0e0620"
             stroke-width="3"
             stroke-linecap="round"
             stroke-miterlimit="10"
             x1="144.60899"
             y1="241.995"
             x2="164.49001"
             y2="241.995"
             id="line4" />
        </g>
        <g
           transform="matrix(0.99,0.141,-0.141,0.99,23.4136,-43.7055)"
           id="g6">
          <line
             fill="none"
             stroke="#0e0620"
             stroke-width="3"
             stroke-linecap="round"
             stroke-miterlimit="10"
             x1="320.13501"
             y1="132.746"
             x2="320.13501"
             y2="153.952"
             id="line5" />
          <line
             fill="none"
             stroke="#0e0620"
             stroke-width="3"
             stroke-linecap="round"
             stroke-miterlimit="10"
             x1="310.194"
             y1="143.349"
             x2="330.07501"
             y2="143.349"
             id="line6" />
        </g>
        <g
           transform="matrix(0.971,0.2392,-0.2392,0.971,123.9156,-33.6827)"
           id="g8">
          <line
             fill="none"
             stroke="#0e0620"
             stroke-width="3"
             stroke-linecap="round"
             stroke-miterlimit="10"
             x1="200.67"
             y1="483.10999"
             x2="200.67"
             y2="504.31601"
             id="line7" />
          <line
             fill="none"
             stroke="#0e0620"
             stroke-width="3"
             stroke-linecap="round"
             stroke-miterlimit="10"
             x1="210.61099"
             y1="493.71301"
             x2="190.73"
             y2="493.71301"
             id="line8" />
        </g>
      </g>
      <g
         id="starsSmall">
        <g
           transform="matrix(0.864,0,0,0.8646,58.7755,52.2881)"
           id="g10">
          <line
             fill="none"
             stroke="#0e0620"
             stroke-width="3"
             stroke-linecap="round"
             stroke-miterlimit="10"
             x1="432.173"
             y1="380.51999"
             x2="432.173"
             y2="391.82999"
             id="line9" />
          <line
             fill="none"
             stroke="#0e0620"
             stroke-width="3"
             stroke-linecap="round"
             stroke-miterlimit="10"
             x1="426.871"
             y1="386.17499"
             x2="437.474"
             y2="386.17499"
             id="line10" />
        </g>
        <g
           transform="matrix(0.677,0,0,0.6774,158.1261,98.0525)"
           id="g12">
          <line
             fill="none"
             stroke="#0e0620"
             stroke-width="3"
             stroke-linecap="round"
             stroke-miterlimit="10"
             x1="489.55499"
             y1="299.76501"
             x2="489.55499"
             y2="308.12399"
             id="line11" />
          <line
             fill="none"
             stroke="#0e0620"
             stroke-width="3"
             stroke-linecap="round"
             stroke-miterlimit="10"
             x1="485.63599"
             y1="303.94501"
             x2="493.47299"
             y2="303.94501"
             id="line12" />
        </g>
        <g
           transform="matrix(0.41,0,0,0.4102,136.5664,174.1025)"
           id="g14">
          <line
             fill="none"
             stroke="#0e0620"
             stroke-width="3"
             stroke-linecap="round"
             stroke-miterlimit="10"
             x1="231.468"
             y1="291.009"
             x2="231.468"
             y2="299.36899"
             id="line13" />
          <line
             fill="none"
             stroke="#0e0620"
             stroke-width="3"
             stroke-linecap="round"
             stroke-miterlimit="10"
             x1="227.55"
             y1="295.189"
             x2="235.38699"
             y2="295.189"
             id="line14" />
        </g>
        <g
           transform="matrix(0.062,0,0,0.063,228.9015,516.9602)"
           id="g16">
          <line
             fill="none"
             stroke="#0e0620"
             stroke-width="3"
             stroke-linecap="round"
             stroke-miterlimit="10"
             x1="244.032"
             y1="547.539"
             x2="244.032"
             y2="555.89801"
             id="line15" />
          <line
             fill="none"
             stroke="#0e0620"
             stroke-width="3"
             stroke-linecap="round"
             stroke-miterlimit="10"
             x1="247.95"
             y1="551.71899"
             x2="240.11301"
             y2="551.71899"
             id="line16" />
        </g>
        <g
           transform="matrix(0,0,0,0,186.3585,411.1465)"
           id="g18">
          <line
             fill="none"
             stroke="#0e0620"
             stroke-width="3"
             stroke-linecap="round"
             stroke-miterlimit="10"
             x1="186.35899"
             y1="406.96701"
             x2="186.35899"
             y2="415.32599"
             id="line17" />
          <line
             fill="none"
             stroke="#0e0620"
             stroke-width="3"
             stroke-linecap="round"
             stroke-miterlimit="10"
             x1="190.27699"
             y1="411.146"
             x2="182.44"
             y2="411.146"
             id="line18" />
        </g>
        <g
           transform="matrix(0,0,0,0,480.2965,411.1465)"
           id="g20">
          <line
             fill="none"
             stroke="#0e0620"
             stroke-width="3"
             stroke-linecap="round"
             stroke-miterlimit="10"
             x1="480.29599"
             y1="406.96701"
             x2="480.29599"
             y2="415.32599"
             id="line19" />
          <line
             fill="none"
             stroke="#0e0620"
             stroke-width="3"
             stroke-linecap="round"
             stroke-miterlimit="10"
             x1="484.215"
             y1="411.146"
             x2="476.37799"
             y2="411.146"
             id="line20" />
        </g>
      </g>
      <g
         id="circlesBig">
        <circle
           fill="none"
           stroke="#0e0620"
           stroke-width="3"
           stroke-linecap="round"
           stroke-miterlimit="10"
           cx="588.97699"
           cy="255.978"
           r="7.9520001"
           transform="translate(0,-0.453)"
           id="circle20" />
        <circle
           fill="none"
           stroke="#0e0620"
           stroke-width="3"
           stroke-linecap="round"
           stroke-miterlimit="10"
           cx="450.06601"
           cy="320.259"
           r="7.9520001"
           transform="translate(0,-0.453)"
           id="circle21" />
        <circle
           fill="none"
           stroke="#0e0620"
           stroke-width="3"
           stroke-linecap="round"
           stroke-miterlimit="10"
           cx="168.30299"
           cy="353.75299"
           r="7.9520001"
           transform="translate(0,-0.453)"
           id="circle22" />
        <circle
           fill="none"
           stroke="#0e0620"
           stroke-width="3"
           stroke-linecap="round"
           stroke-miterlimit="10"
           cx="429.522"
           cy="201.185"
           r="7.9520001"
           transform="translate(0,-0.453)"
           id="circle23" />
        <circle
           fill="none"
           stroke="#0e0620"
           stroke-width="3"
           stroke-linecap="round"
           stroke-miterlimit="10"
           cx="200.67"
           cy="176.313"
           r="7.9520001"
           transform="translate(0,-0.453)"
           id="circle24" />
        <circle
           fill="none"
           stroke="#0e0620"
           stroke-width="3"
           stroke-linecap="round"
           stroke-miterlimit="10"
           cx="133.343"
           cy="477.01401"
           r="7.9520001"
           transform="translate(0,-0.453)"
           id="circle25" />
        <circle
           fill="none"
           stroke="#0e0620"
           stroke-width="3"
           stroke-linecap="round"
           stroke-miterlimit="10"
           cx="283.521"
           cy="568.03302"
           r="7.9520001"
           transform="translate(0,-0.453)"
           id="circle26" />
        <circle
           fill="none"
           stroke="#0e0620"
           stroke-width="3"
           stroke-linecap="round"
           stroke-miterlimit="10"
           cx="413.61801"
           cy="482.38699"
           r="7.9520001"
           transform="translate(0,-0.453)"
           id="circle27" />
      </g>
      <g
         id="circlesSmall">
        <circle
           fill="#0e0620"
           cx="549.87903"
           cy="296.40201"
           r="2.651"
           transform="translate(0,-0.907)"
           id="circle28" />
        <circle
           fill="#0e0620"
           cx="253.28999"
           cy="229.24001"
           r="2.651"
           transform="translate(0,-0.907)"
           id="circle29" />
        <circle
           fill="#0e0620"
           cx="434.82401"
           cy="263.931"
           r="2.651"
           transform="translate(0,-0.907)"
           id="circle30" />
        <circle
           fill="#0e0620"
           cx="183.70799"
           cy="544.17603"
           r="2.651"
           transform="translate(0,-0.907)"
           id="circle31" />
        <circle
           fill="#0e0620"
           cx="382.51501"
           cy="530.92297"
           r="2.651"
           transform="translate(0,-0.907)"
           id="circle32" />
        <circle
           fill="#0e0620"
           cx="130.69299"
           cy="305.608"
           r="2.651"
           transform="translate(0,-0.907)"
           id="circle33" />
        <circle
           fill="#0e0620"
           cx="480.29599"
           cy="477.01401"
           r="2.651"
           transform="translate(0,-0.907)"
           id="circle34" />
      </g>
    </g>
    <g
       id="spaceman"
       clip-path="url(cordClip)"
       transform="matrix(1,0.0039,-0.0039,1,0.8619,0.317)">
      <path
         id="cord"
         fill="none"
         stroke="#0e0620"
         stroke-width="3"
         stroke-linecap="round"
         stroke-linejoin="round"
         stroke-miterlimit="10"
         d="m 273.813,410.969 c 0,0 -54.527,39.501 -115.34,38.218 -2.28,-0.048 -4.926,-0.241 -7.841,-0.548 -68.038,-7.178 -134.288,-43.963 -167.33,-103.87 -0.908,-1.646 -1.793,-3.3 -2.654,-4.964 -18.395,-35.511 -37.259,-83.385 -32.075,-118.817" />
      <path
         id="backpack"
         fill="#ffffff"
         stroke="#0e0620"
         stroke-width="3"
         stroke-linecap="round"
         stroke-linejoin="round"
         stroke-miterlimit="10"
         d="m 338.164,454.689 -64.726,-17.353 c -11.086,-2.972 -17.664,-14.369 -14.692,-25.455 l 15.694,-58.537 c 3.889,-14.504 18.799,-23.11 33.303,-19.221 l 52.349,14.035 c 14.504,3.889 23.11,18.799 19.221,33.303 l -15.694,58.537 c -2.972,11.085 -14.368,17.663 -25.455,14.691 z" />
      <g
         id="antenna">
        <line
           fill="#ffffff"
           stroke="#0e0620"
           stroke-width="3"
           stroke-linecap="round"
           stroke-linejoin="round"
           stroke-miterlimit="10"
           x1="323.396"
           y1="236.625"
           x2="295.285"
           y2="353.75299"
           id="line34" />
        <circle
           fill="#ffffff"
           stroke="#0e0620"
           stroke-width="3"
           stroke-linecap="round"
           stroke-linejoin="round"
           stroke-miterlimit="10"
           cx="323.66599"
           cy="235.617"
           r="6.375"
           id="circle35" />
      </g>
      <g
         id="armR">
        <path
           fill="#ffffff"
           stroke="#0e0620"
           stroke-width="3"
           stroke-linecap="round"
           stroke-linejoin="round"
           stroke-miterlimit="10"
           d="m 360.633,363.039 c 1.352,1.061 4.91,5.056 5.824,6.634 l 27.874,47.634 c 3.855,6.649 1.59,15.164 -5.059,19.02 v 0 c -6.649,3.855 -15.164,1.59 -19.02,-5.059 l -5.603,-9.663"
           id="path35" />
        <path
           fill="#ffffff"
           stroke="#0e0620"
           stroke-width="3"
           stroke-linecap="round"
           stroke-linejoin="round"
           stroke-miterlimit="10"
           d="m 388.762,434.677 c 5.234,-3.039 7.731,-8.966 6.678,-14.594 2.344,1.343 4.383,3.289 5.837,5.793 4.411,7.596 1.829,17.33 -5.767,21.741 -7.596,4.411 -17.33,1.829 -21.741,-5.767 -1.754,-3.021 -2.817,-5.818 -2.484,-9.046 4.34,4.551 11.802,5.169 17.477,1.873 z"
           id="path36" />
      </g>
      <g
         id="armL">
        <path
           fill="#ffffff"
           stroke="#0e0620"
           stroke-width="3"
           stroke-linecap="round"
           stroke-linejoin="round"
           stroke-miterlimit="10"
           d="m 301.301,347.66 c -1.702,0.242 -5.91,1.627 -7.492,2.536 l -47.965,27.301 c -6.664,3.829 -8.963,12.335 -5.134,18.999 v 0 c 3.829,6.664 12.335,8.963 18.999,5.134 l 9.685,-5.564"
           id="path37" />
        <path
           fill="#ffffff"
           stroke="#0e0620"
           stroke-width="3"
           stroke-linecap="round"
           stroke-linejoin="round"
           stroke-miterlimit="10"
           d="m 241.978,395.324 c -3.012,-5.25 -2.209,-11.631 1.518,-15.977 -2.701,-0.009 -5.44,0.656 -7.952,2.096 -7.619,4.371 -10.253,14.09 -5.883,21.71 4.371,7.619 14.09,10.253 21.709,5.883 3.03,-1.738 5.35,-3.628 6.676,-6.59 -6.033,1.768 -12.803,-1.429 -16.068,-7.122 z"
           id="path38" />
      </g>
      <g
         id="body">
        <path
           fill="#ffffff"
           stroke="#0e0620"
           stroke-width="3"
           stroke-linecap="round"
           stroke-linejoin="round"
           stroke-miterlimit="10"
           d="m 353.351,365.387 c -7.948,1.263 -16.249,0.929 -24.48,-1.278 -8.232,-2.207 -15.586,-6.07 -21.836,-11.14 -17.004,4.207 -31.269,17.289 -36.128,35.411 l -1.374,5.123 c -7.112,26.525 8.617,53.791 35.13,60.899 v 0 c 26.513,7.108 53.771,-8.632 60.883,-35.158 l 1.374,-5.123 c 4.858,-18.122 -0.949,-36.585 -13.569,-48.734 z"
           id="path39" />
        <path
           fill="none"
           stroke="#0e0620"
           stroke-width="3"
           stroke-linecap="round"
           stroke-linejoin="round"
           stroke-miterlimit="10"
           d="m 269.678,394.912 v 0 c 26.3,20.643 59.654,29.585 93.106,25.724 l 2.419,-0.114"
           id="path40" />
      </g>
      <g
         id="legs">
        <g
           id="legR">
          <path
             fill="#ffffff"
             stroke="#0e0620"
             stroke-width="3"
             stroke-linecap="round"
             stroke-linejoin="round"
             stroke-miterlimit="10"
             d="m 312.957,456.734 -14.315,53.395 c -1.896,7.07 2.299,14.338 9.37,16.234 v 0 c 7.07,1.896 14.338,-2.299 16.234,-9.37 l 17.838,-66.534 c -8.633,5.427 -18.558,6.928 -29.127,6.275 z"
             id="path41" />
          <line
             fill="none"
             stroke="#0e0620"
             stroke-width="3"
             stroke-linecap="round"
             stroke-linejoin="round"
             stroke-miterlimit="10"
             x1="304.883"
             y1="486.849"
             x2="330.487"
             y2="493.71301"
             id="line41" />
        </g>
        <g
           id="legL">
          <path
             fill="#ffffff"
             stroke="#0e0620"
             stroke-width="3"
             stroke-linecap="round"
             stroke-linejoin="round"
             stroke-miterlimit="10"
             d="M 296.315,452.273 282,505.667 c -1.896,7.07 -9.164,11.265 -16.234,9.37 v 0 c -7.07,-1.896 -11.265,-9.164 -9.37,-16.234 l 17.838,-66.534 c 4.759,9.017 12.602,15.281 22.081,20.004 z"
             id="path42" />
          <line
             fill="none"
             stroke="#0e0620"
             stroke-width="3"
             stroke-linecap="round"
             stroke-linejoin="round"
             stroke-miterlimit="10"
             x1="262.638"
             y1="475.522"
             x2="288.241"
             y2="482.38699"
             id="line42" />
        </g>
      </g>
      <g
         id="head">
        <ellipse
           transform="matrix(0.259,-0.9659,0.9659,0.259,-51.5445,563.2371)"
           fill="#ffffff"
           stroke="#0e0620"
           stroke-width="3"
           stroke-linecap="round"
           stroke-linejoin="round"
           stroke-miterlimit="10"
           cx="341.29501"
           cy="315.211"
           rx="61.960999"
           ry="60.305"
           id="ellipse42" />
        <path
           id="headStripe"
           fill="none"
           stroke="#0e0620"
           stroke-width="3"
           stroke-linecap="round"
           stroke-linejoin="round"
           stroke-miterlimit="10"
           d="m 330.868,261.338 c -7.929,1.72 -15.381,5.246 -21.799,10.246"
           transform="matrix(1,0.0039,-0.0039,1,1.0192,-1.0924)" />
        <path
           fill="#ffffff"
           stroke="#0e0620"
           stroke-width="3"
           stroke-linecap="round"
           stroke-linejoin="round"
           stroke-miterlimit="10"
           d="m 380.857,346.164 c -1.247,4.651 -4.668,8.421 -9.196,10.06 -9.332,3.377 -26.2,7.817 -42.301,3.5 -16.101,-4.317 -28.485,-16.599 -34.877,-24.192 -3.101,-3.684 -4.177,-8.66 -2.93,-13.311 l 7.453,-27.798 c 0.756,-2.82 3.181,-4.868 6.088,-5.13 6.755,-0.61 20.546,-0.608 41.785,5.087 21.239,5.695 33.181,12.591 38.725,16.498 2.387,1.682 3.461,4.668 2.705,7.488 z"
           id="path43" />
        <g
           clip-path="url(#GlassClip)"
           id="g43">
          <polygon
             id="glassShine"
             fill="none"
             stroke="#0e0620"
             stroke-width="3"
             stroke-miterlimit="10"
             points="383.003,264.076 364.393,251.618 264.807,364.928 278.436,375.599 "
             transform="matrix(0.866,-0.5,0.5,0.866,-33.401,203.976)" />
        </g>
      </g>
    </g>
  </g>
</svg>
